<?xml version="1.0" encoding="utf-8"?>
<!-- Svg Vector Icons : http://www.onlinewebfonts.com/icon -->
<!DOCTYPE svg PUBLIC "-//W3C//DTD SVG 1.1//EN" "http://www.w3.org/Graphics/SVG/1.1/DTD/svg11.dtd">
<svg version="1.1" xmlns="http://www.w3.org/2000/svg" xmlns:xlink="http://www.w3.org/1999/xlink" x="0px" y="0px" viewBox="0 0 1000 1000" enable-background="new 0 0 1000 1000" xml:space="preserve">
<metadata> Svg Vector Icons : http://www.onlinewebfonts.com/icon </metadata>
<g><g><path d="M969.2,195l-347.8-90.5h-6.8h-1c-13.6,0-24.7,8.8-26.8,21.9c-2.8,18-12.7,32.5-29.7,44.8c-16.6,12-35.5,18-56.9,18c-21.4,0-40.4-5.8-57.4-18c-17-12.2-26.6-26.8-29.7-44.8c-2.3-13.2-13.6-21.9-26.8-21.9h-2h-6.8L29.8,195c-14.2,3.7-22.6,18.9-19,33.1l48.6,191.2c3.1,12,14.1,19.9,27.2,19.9h128.4v429.6c0,15.1,11.7,26.8,26.8,26.8h515.2c15.1,0,27.7-11.7,27.7-26.8V439.2h128.4c12.2,0,23.3-8.4,26.3-19.9l49.6-191.2C992.8,213.9,984.3,198.9,969.2,195z M892.3,385.2H757.1c-14.1,0-26.8,12.2-26.8,27.2v429.1H268.7V412.4c0-15.1-11.7-27.2-26.8-27.2H107.6l-38-144.5l298.7-77.4c10.7,23.8,27.7,43.3,51.6,58.4c23.8,15.1,50.6,22.4,80.3,22.4c29.2,0,55.5-7.3,79.3-22.4c23.8-15.1,41.3-34.5,52-58.4l298.7,77.4L892.3,385.2z"/></g><g></g><g></g><g></g><g></g><g></g><g></g><g></g><g></g><g></g><g></g><g></g><g></g><g></g><g></g><g></g></g>
</svg>